<svg width="70" height="86" viewBox="0 0 70 86" fill="none" xmlns="http://www.w3.org/2000/svg">
<g filter="url(#filter0_d_116_459)">
<path d="M7.61432 19.4846H17.8848V74.0419H0L7.61432 70.4992V19.4846Z" fill="#00FF00"/>
</g>
<g filter="url(#filter1_d_116_459)">
<ellipse cx="28.3324" cy="21.4332" rx="20.718" ry="21.4332" fill="#FF0000"/>
</g>
<g filter="url(#filter2_d_116_459)">
<path d="M17.9434 46.2857L17.9311 39.7132L21.8349 41.4969L49.5817 69.9678L62.0001 73.915L35.7697 73.915L17.9434 46.2857Z" fill="#0000FF"/>
</g>
<ellipse cx="22.4889" cy="15.2335" rx="14.8745" ry="15.2335" fill="#FBFF3E"/>
<path d="M23.0201 11.6909L23.3527 13.8147L24.7023 12.1418L23.9288 14.1474L25.9338 13.3736L24.2614 14.7237L26.3845 15.0564L24.2614 15.3891L25.9338 16.7392L23.9288 15.9654L24.7023 17.9711L23.3527 16.2981L23.0201 18.422L22.6875 16.2981L21.3378 17.9711L22.1114 15.9654L20.1064 16.7392L21.7787 15.3891L19.6556 15.0564L21.7787 14.7237L19.6556 12.1418L12.5725 3.89697L20.541 11.868L22.6875 13.8147L23.0201 11.6909Z" fill="#FF00FF"/>
<defs>
<filter id="filter0_d_116_459" x="0" y="19.4846" width="25.8848" height="62.5571" filterUnits="userSpaceOnUse" color-interpolation-filters="sRGB">
<feFlood flood-opacity="0" result="BackgroundImageFix"/>
<feColorMatrix in="SourceAlpha" type="matrix" values="0 0 0 0 0 0 0 0 0 0 0 0 0 0 0 0 0 0 127 0" result="hardAlpha"/>
<feOffset dx="4" dy="4"/>
<feGaussianBlur stdDeviation="2"/>
<feComposite in2="hardAlpha" operator="out"/>
<feColorMatrix type="matrix" values="0 0 0 0 0 0 0 0 0 0 0 0 0 0 0 0 0 0 0.25 0"/>
<feBlend mode="normal" in2="BackgroundImageFix" result="effect1_dropShadow_116_459"/>
<feBlend mode="normal" in="SourceGraphic" in2="effect1_dropShadow_116_459" result="shape"/>
</filter>
<filter id="filter1_d_116_459" x="7.61438" y="0" width="49.436" height="50.8665" filterUnits="userSpaceOnUse" color-interpolation-filters="sRGB">
<feFlood flood-opacity="0" result="BackgroundImageFix"/>
<feColorMatrix in="SourceAlpha" type="matrix" values="0 0 0 0 0 0 0 0 0 0 0 0 0 0 0 0 0 0 127 0" result="hardAlpha"/>
<feOffset dx="4" dy="4"/>
<feGaussianBlur stdDeviation="2"/>
<feComposite in2="hardAlpha" operator="out"/>
<feColorMatrix type="matrix" values="0 0 0 0 0 0 0 0 0 0 0 0 0 0 0 0 0 0 0.25 0"/>
<feBlend mode="normal" in2="BackgroundImageFix" result="effect1_dropShadow_116_459"/>
<feBlend mode="normal" in="SourceGraphic" in2="effect1_dropShadow_116_459" result="shape"/>
</filter>
<filter id="filter2_d_116_459" x="17.931" y="39.7131" width="52.069" height="42.2019" filterUnits="userSpaceOnUse" color-interpolation-filters="sRGB">
<feFlood flood-opacity="0" result="BackgroundImageFix"/>
<feColorMatrix in="SourceAlpha" type="matrix" values="0 0 0 0 0 0 0 0 0 0 0 0 0 0 0 0 0 0 127 0" result="hardAlpha"/>
<feOffset dx="4" dy="4"/>
<feGaussianBlur stdDeviation="2"/>
<feComposite in2="hardAlpha" operator="out"/>
<feColorMatrix type="matrix" values="0 0 0 0 0 0 0 0 0 0 0 0 0 0 0 0 0 0 0.25 0"/>
<feBlend mode="normal" in2="BackgroundImageFix" result="effect1_dropShadow_116_459"/>
<feBlend mode="normal" in="SourceGraphic" in2="effect1_dropShadow_116_459" result="shape"/>
</filter>
</defs>
</svg>
